<svg width="9" height="10" viewBox="0 0 9 10" fill="none" xmlns="http://www.w3.org/2000/svg">
<path d="M7.36111 9.38889H1.13889C0.647969 9.38889 0.25 8.99092 0.25 8.5V2.27778C0.25 1.78686 0.647969 1.38889 1.13889 1.38889H2.02778V0.5H2.91667V1.38889H5.58333V0.5H6.47222V1.38889H7.36111C7.85203 1.38889 8.25 1.78686 8.25 2.27778V8.5C8.25 8.99092 7.85203 9.38889 7.36111 9.38889ZM1.13889 4.05556V8.5H7.36111V4.05556H1.13889ZM1.13889 2.27778V3.16667H7.36111V2.27778H1.13889ZM3.27222 8.05556H2.47222V7.25556L4.33889 5.39333L5.13889 6.19333L3.27222 8.05556ZM5.41667 5.91422L4.61667 5.11422L5.22778 4.50578L6.02778 5.30578L5.41889 5.91467L5.41667 5.91422Z" fill="#EB5757"/>
</svg>
